<?xml version="1.0" encoding="UTF-8" standalone="no"?>
<svg
   width="20"
   height="20"
   viewBox="0 0 20 20"
   fill="none"
   version="1.1"
   id="svg4"
   sodipodi:docname="github.svg"
   inkscape:version="1.1 (c68e22c387, 2021-05-23)"
   xmlns:inkscape="http://www.inkscape.org/namespaces/inkscape"
   xmlns:sodipodi="http://sodipodi.sourceforge.net/DTD/sodipodi-0.dtd"
   xmlns="http://www.w3.org/2000/svg"
   xmlns:svg="http://www.w3.org/2000/svg">
  <defs
     id="defs8" />
  <sodipodi:namedview
     id="namedview6"
     pagecolor="#ffffff"
     bordercolor="#999999"
     borderopacity="1"
     inkscape:pageshadow="0"
     inkscape:pageopacity="0"
     inkscape:pagecheckerboard="0"
     showgrid="false"
     inkscape:zoom="18.384776"
     inkscape:cx="15.801117"
     inkscape:cy="14.114939"
     inkscape:window-width="1920"
     inkscape:window-height="1017"
     inkscape:window-x="-8"
     inkscape:window-y="-8"
     inkscape:window-maximized="1"
     inkscape:current-layer="svg4" />
  <path
     fill-rule="evenodd"
     clip-rule="evenodd"
     d="M 9.9924591,0 C 4.4716255,0 0,4.4716255 0,9.9924591 c 0,4.4216629 2.8603414,8.1563449 6.832344,9.4803459 0.499623,0.08743 0.6869816,-0.21234 0.6869816,-0.474643 0,-0.23732 -0.01249,-1.024226 -0.01249,-1.861094 C 4.9962296,17.599219 4.3467197,16.525029 4.1468706,15.962953 4.0344553,15.67567 3.547323,14.788839 3.1226435,14.551519 2.7729074,14.364161 2.2732844,13.902009 3.1101529,13.889518 c 0.7869062,-0.01249 1.348982,0.724454 1.5363407,1.024228 0.8993212,1.511359 2.3357372,1.086679 2.9103036,0.824377 0.087434,-0.64951 0.3497361,-1.086679 0.6370193,-1.336492 -2.2233221,-0.249811 -4.5465689,-1.11166 -4.5465689,-4.933776 0,-1.0866798 0.3872077,-1.9860012 1.0242271,-2.6854734 C 4.57155,6.5325701 4.221814,5.5083431 4.7713994,4.13438 c 0,0 0.8368684,-0.262302 2.7479263,1.024227 0.7993967,-0.2248303 1.6487557,-0.3372454 2.4981143,-0.3372454 0.84936,0 1.698718,0.1124151 2.498115,0.3372454 1.911058,-1.2990197 2.747927,-1.024227 2.747927,-1.024227 0.549585,1.3739631 0.199849,2.3981901 0.09993,2.6480016 0.637019,0.6994722 1.024227,1.5863029 1.024227,2.6854734 0,3.834606 -2.335737,4.683965 -4.559059,4.933776 0.362227,0.312265 0.674491,0.911812 0.674491,1.848605 0,1.336492 -0.01249,2.410682 -0.01249,2.747926 0,0.262303 0.187358,0.574568 0.686981,0.474643 3.947021,-1.324001 6.807362,-5.071174 6.807362,-9.4803459 C 19.984918,4.4716255 15.513293,0 9.9924591,0 Z"
     fill="#1b1f23"
     id="path2"
     style="stroke-width:1.24906" />
</svg>
